<svg width="200" height="200" viewBox="0 0 200 200" fill="none" xmlns="http://www.w3.org/2000/svg">
<g clip-path="url(#clip0_187_7328)">
<g clip-path="url(#clip1_187_7328)">
<line x1="-198.354" y1="202.646" x2="7.64645" y2="-3.35356" stroke="black"/>
<line x1="-188.354" y1="202.646" x2="17.6465" y2="-3.35356" stroke="black"/>
<line x1="-178.354" y1="202.646" x2="27.6465" y2="-3.35356" stroke="black"/>
<line x1="-168.354" y1="202.646" x2="37.6465" y2="-3.35356" stroke="black"/>
<line x1="-158.354" y1="202.646" x2="47.6465" y2="-3.35356" stroke="black"/>
<line x1="-148.354" y1="202.646" x2="57.6465" y2="-3.35356" stroke="black"/>
<line x1="-138.354" y1="202.646" x2="67.6464" y2="-3.35356" stroke="black"/>
<line x1="-128.354" y1="202.646" x2="77.6464" y2="-3.35356" stroke="black"/>
<line x1="-118.354" y1="202.646" x2="87.6464" y2="-3.35356" stroke="black"/>
<line x1="-108.354" y1="202.646" x2="97.6464" y2="-3.35356" stroke="black"/>
<line x1="-98.3536" y1="202.646" x2="107.646" y2="-3.35356" stroke="black"/>
<line x1="-88.3536" y1="202.646" x2="117.646" y2="-3.35356" stroke="black"/>
<line x1="-78.3536" y1="202.646" x2="127.646" y2="-3.35356" stroke="black"/>
<line x1="-68.3536" y1="202.646" x2="137.646" y2="-3.35356" stroke="black"/>
<line x1="-58.3536" y1="202.646" x2="147.646" y2="-3.35356" stroke="black"/>
<line x1="-48.3536" y1="202.646" x2="157.646" y2="-3.35356" stroke="black"/>
<line x1="-38.3536" y1="202.646" x2="167.646" y2="-3.35356" stroke="black"/>
<line x1="-28.3536" y1="202.646" x2="177.646" y2="-3.35356" stroke="black"/>
<line x1="-18.3536" y1="202.646" x2="187.646" y2="-3.35356" stroke="black"/>
<line x1="-8.35355" y1="202.646" x2="197.646" y2="-3.35356" stroke="black"/>
<line x1="1.64645" y1="202.646" x2="207.646" y2="-3.35356" stroke="black"/>
<line x1="11.6464" y1="202.646" x2="217.646" y2="-3.35356" stroke="black"/>
<line x1="21.6464" y1="202.646" x2="227.646" y2="-3.35356" stroke="black"/>
<line x1="31.6464" y1="202.646" x2="237.646" y2="-3.35356" stroke="black"/>
<line x1="41.6464" y1="202.646" x2="247.646" y2="-3.35356" stroke="black"/>
<line x1="51.6464" y1="202.646" x2="257.646" y2="-3.35356" stroke="black"/>
<line x1="61.6464" y1="202.646" x2="267.646" y2="-3.35356" stroke="black"/>
<line x1="71.6464" y1="202.646" x2="277.646" y2="-3.35356" stroke="black"/>
<line x1="81.6464" y1="202.646" x2="287.646" y2="-3.35356" stroke="black"/>
<line x1="91.6464" y1="202.646" x2="297.646" y2="-3.35356" stroke="black"/>
<line x1="101.646" y1="202.646" x2="307.646" y2="-3.35356" stroke="black"/>
<line x1="111.646" y1="202.646" x2="317.646" y2="-3.35356" stroke="black"/>
<line x1="121.646" y1="202.646" x2="327.646" y2="-3.35356" stroke="black"/>
<line x1="131.646" y1="202.646" x2="337.646" y2="-3.35356" stroke="black"/>
<line x1="141.646" y1="202.646" x2="347.646" y2="-3.35356" stroke="black"/>
<line x1="151.646" y1="202.646" x2="357.646" y2="-3.35356" stroke="black"/>
<line x1="161.646" y1="202.646" x2="367.646" y2="-3.35356" stroke="black"/>
<line x1="171.646" y1="202.646" x2="377.646" y2="-3.35356" stroke="black"/>
<line x1="181.646" y1="202.646" x2="387.646" y2="-3.35356" stroke="black"/>
<line x1="191.646" y1="202.646" x2="397.646" y2="-3.35356" stroke="black"/>
</g>
</g>
<defs>
<clipPath id="clip0_187_7328">
<rect width="200" height="200" fill="white"/>
</clipPath>
<clipPath id="clip1_187_7328">
<rect width="200" height="200" fill="white"/>
</clipPath>
</defs>
</svg>
