<svg width="66" height="65" viewBox="0 0 66 65" fill="none" xmlns="http://www.w3.org/2000/svg">
<path fill-rule="evenodd" clip-rule="evenodd" d="M65.5 55.4975V65H54.722L61.24 58.4821C62.4834 57.2387 63.9271 56.232 65.5 55.4975ZM41.722 65H53.0358L65.5 52.5358V44.4667C62.7588 45.0941 60.2402 46.4818 58.24 48.4821L41.722 65ZM28.7218 65H40.0355L65.5 39.5355V36.6624C63.3161 38.5797 60.616 39.8262 57.7253 40.2392C54.5123 40.6982 51.5349 42.1869 49.24 44.4818L28.7218 65ZM15.7217 65H27.0354L65.5 26.5355V23.707L59.2105 29.9965C56.9156 32.2914 53.9382 33.7801 50.7253 34.2391C47.5123 34.6981 44.5349 36.1868 42.24 38.4818L15.7217 65ZM2.72168 65H14.0354L65.5 13.5354V10.707L52.2105 23.9964C49.9156 26.2914 46.9382 27.7801 43.7253 28.2391C40.5123 28.6981 37.5349 30.1868 35.24 32.4817L2.72168 65ZM0.5 51.4652L0.5 54.2937L13.7901 41.0036C16.085 38.7086 19.0624 37.2199 22.2754 36.7609C25.4883 36.302 28.4657 34.8133 30.7606 32.5183L63.2789 0H51.9652L0.5 51.4652ZM0.5 38.4652L0.5 41.2936L6.79007 35.0035C9.08503 32.7086 12.0624 31.2199 15.2754 30.7609C18.4883 30.3019 21.4657 28.8132 23.7606 26.5182L50.2789 0H38.9652L0.5 38.4652ZM0.5 25.4651L0.5 28.3382C2.68403 26.4205 5.38434 25.1738 8.27536 24.7608C11.4883 24.3018 14.4657 22.8131 16.7606 20.5182L37.2788 0H25.9651L0.5 25.4651ZM0.5 12.4649L0.5 20.5334C3.2414 19.9061 5.76026 18.5183 7.76064 16.5179L24.2786 0H12.9649L0.5 12.4649ZM11.2786 0H0.5L0.5 9.50284C2.07318 8.7683 3.5171 7.76148 4.76064 6.51794L11.2786 0Z" fill="black"/>
<path fill-rule="evenodd" clip-rule="evenodd" d="M65.5 55.4975V65H54.722L61.24 58.4821C62.4834 57.2387 63.9271 56.232 65.5 55.4975ZM41.722 65H53.0358L65.5 52.5358V44.4667C62.7588 45.0941 60.2402 46.4818 58.24 48.4821L41.722 65ZM28.7218 65H40.0355L65.5 39.5355V36.6624C63.3161 38.5797 60.616 39.8262 57.7253 40.2392C54.5123 40.6982 51.5349 42.1869 49.24 44.4818L28.7218 65ZM15.7217 65H27.0354L65.5 26.5355V23.707L59.2105 29.9965C56.9156 32.2914 53.9382 33.7801 50.7253 34.2391C47.5123 34.6981 44.5349 36.1868 42.24 38.4818L15.7217 65ZM2.72168 65H14.0354L65.5 13.5354V10.707L52.2105 23.9964C49.9156 26.2914 46.9382 27.7801 43.7253 28.2391C40.5123 28.6981 37.5349 30.1868 35.24 32.4817L2.72168 65ZM0.5 51.4652L0.5 54.2937L13.7901 41.0036C16.085 38.7086 19.0624 37.2199 22.2754 36.7609C25.4883 36.302 28.4657 34.8133 30.7606 32.5183L63.2789 0H51.9652L0.5 51.4652ZM0.5 38.4652L0.5 41.2936L6.79007 35.0035C9.08503 32.7086 12.0624 31.2199 15.2754 30.7609C18.4883 30.3019 21.4657 28.8132 23.7606 26.5182L50.2789 0H38.9652L0.5 38.4652ZM0.5 25.4651L0.5 28.3382C2.68403 26.4205 5.38434 25.1738 8.27536 24.7608C11.4883 24.3018 14.4657 22.8131 16.7606 20.5182L37.2788 0H25.9651L0.5 25.4651ZM0.5 12.4649L0.5 20.5334C3.2414 19.9061 5.76026 18.5183 7.76064 16.5179L24.2786 0H12.9649L0.5 12.4649ZM11.2786 0H0.5L0.5 9.50284C2.07318 8.7683 3.5171 7.76148 4.76064 6.51794L11.2786 0Z" fill="url(#paint0_linear_225_6822)"/>
<defs>
<linearGradient id="paint0_linear_225_6822" x1="-1.5" y1="65" x2="47.2639" y2="-11.8835" gradientUnits="userSpaceOnUse">
<stop stop-color="#3352A0"/>
<stop offset="0.1" stop-color="#53D0EE"/>
<stop offset="0.305"/>
<stop offset="0.545"/>
<stop offset="0.795" stop-color="#FED363"/>
<stop offset="1" stop-color="#BB2929"/>
</linearGradient>
</defs>
</svg>
